<?xml version="1.0" encoding="utf-8"?>
<!-- Generator: Adobe Illustrator 23.0.2, SVG Export Plug-In . SVG Version: 6.00 Build 0)  -->
<svg version="1.1" xmlns="http://www.w3.org/2000/svg" xmlns:xlink="http://www.w3.org/1999/xlink" x="0px" y="0px"
	 viewBox="0 0 1503.09 285.92" style="enable-background:new 0 0 1503.09 285.92;" xml:space="preserve">
<style type="text/css">
	.st0{display:none;fill:#004A4D;stroke:#1D1D1B;stroke-miterlimit:10;}
	.st1{fill:#FFFFFF;}
	.st2{fill:#94BC44;}
	.st3{fill:#FFFCFE;}
</style>
<g id="Background">
</g>
<g id="Text">
</g>
<g id="Object">
	<rect x="-119.43" y="-72.64" class="st0" width="1868.32" height="465.11"/>
	<g>
		<g>
			<g>
				<circle class="st1" cx="63.23" cy="139.58" r="40.48"/>
				<path class="st2" d="M90.9,88.86c1.2,0,2.35-0.44,3.26-1.22c12.66-10.76,29.05-17.27,46.93-17.27
					c15.71,0,30.63,4.92,43.19,14.24c6.64,4.93,15.96,4.89,21.95-0.82c7.69-7.33,6.73-19.42-1.38-25.53
					c-18.5-13.94-40.54-21.31-63.76-21.31c-35.31,0-66.63,17.36-85.9,43.99c-2.39,3.3,0.03,7.92,4.1,7.92H90.9z"/>
				<path class="st2" d="M286.76,107.29c-6.67-6.37-17.25-6.13-23.62,0.55c-3.35,3.5-9.66,11.4-20.54,25.06
					c-16.95,21.28-45.33,56.91-56.42,65.83c-10.86,8.74-23.84,16.83-45.09,16.83c-21.14,0-40.19-9.1-53.47-23.57
					c-0.96-1.05-2.31-1.68-3.73-1.68H54.79c-3.9,0-6.33,4.27-4.31,7.6c18.61,30.59,52.25,51.07,90.6,51.07
					c31.87,0,52.04-12.94,66.04-24.21c12.92-10.4,35.54-38.33,61.61-71.04c7.91-9.94,16.1-20.21,18.57-22.8
					C293.68,124.24,293.43,113.66,286.76,107.29z"/>
			</g>
			<g>
				<g>
					
						<ellipse transform="matrix(0.1401 -0.9901 0.9901 0.1401 185.8256 506.6585)" class="st2" cx="384.62" cy="146.34" rx="40.48" ry="40.48"/>
				</g>
				<g>
					<path class="st1" d="M356.96,197.06c-1.2,0-2.35,0.44-3.26,1.22c-12.66,10.76-29.05,17.27-46.93,17.27
						c-15.71,0-30.63-4.92-43.19-14.24c-6.64-4.93-15.96-4.89-21.95,0.82c-7.69,7.33-6.73,19.42,1.38,25.53
						c18.5,13.94,40.54,21.31,63.76,21.31c35.31,0,66.63-17.36,85.9-43.99c2.39-3.3-0.03-7.92-4.1-7.92H356.96z"/>
					<path class="st1" d="M161.1,178.63c6.67,6.37,17.25,6.13,23.62-0.54c3.34-3.5,9.66-11.4,20.54-25.06
						c16.95-21.28,45.33-56.91,56.42-65.83c10.86-8.74,23.84-16.83,45.09-16.83c21.14,0,40.19,9.1,53.47,23.57
						c0.96,1.05,2.31,1.68,3.73,1.68h29.09c3.9,0,6.33-4.27,4.31-7.6c-18.61-30.59-52.25-51.07-90.6-51.07
						c-31.87,0-52.04,12.94-66.04,24.21c-12.92,10.4-35.54,38.33-61.61,71.04c-7.91,9.94-16.1,20.21-18.57,22.8
						C154.18,161.68,154.42,172.26,161.1,178.63z"/>
				</g>
			</g>
		</g>
		<g>
			<path class="st2" d="M531.19,65.07h19.67v104.48h-12.22v0.15l-54.85-70.5v70.35h-19.67V65.22h15.95l51.12,64.69V65.07z"/>
			<path class="st2" d="M654.16,169.55h-78.1c0-34.73,0-69.61,0-104.33h78.1v19.08h-58.58v24h56.49v18.33h-56.49v23.55h58.58V169.55
				z"/>
			<path class="st2" d="M768.63,116.49c0.45,26.38-15.65,53.06-52.17,53.06c-12.82,0-28.17,0-40.99,0V65.22c12.82,0,28.17,0,40.99,0
				C752.23,65.22,768.18,90.7,768.63,116.49z M695,150.62h21.46c23.7,0,33.09-17.29,32.64-34.28c-0.45-16.25-9.99-32.49-32.64-32.49
				H695V150.62z"/>
			<path class="st3" d="M918.58,156.43c-10.73,10.58-24.59,15.5-39.65,15.5c-38.75,0-55.15-26.68-55.3-53.81
				c-0.15-27.28,17.59-55,55.3-55c14.16,0,27.57,5.37,38.31,15.95l-13.12,12.67c-6.86-6.71-16.1-9.84-25.19-9.84
				c-25.19,0-36.07,18.78-35.92,36.22c0.15,17.29,10.14,35.32,35.92,35.32c9.09,0,19.38-3.73,26.23-10.58L918.58,156.43z"/>
			<path class="st3" d="M1007.26,132.88c0,21.17-14.46,38.31-38.3,38.31s-38.16-17.14-38.16-38.31c0-21.02,14.61-38.31,38.01-38.31
				S1007.26,111.87,1007.26,132.88z M948.98,132.88c0,11.18,6.71,21.61,19.97,21.61c13.26,0,19.97-10.43,19.97-21.61
				c0-11.03-7.75-21.76-19.97-21.76C955.84,111.12,948.98,121.86,948.98,132.88z"/>
			<path class="st3" d="M1081.34,169.55V131.1c0-11.18-6.11-19.67-17.74-19.67c-11.18,0-18.78,9.39-18.78,20.57v37.56h-18.04V95.92
				h16.25l1.19,9.99c7.45-7.3,14.91-11.03,24.15-11.03c17.29,0,31.15,12.97,31.15,36.07v38.6H1081.34z"/>
			<path class="st3" d="M1176.73,169.55V131.1c0-11.18-6.11-19.67-17.74-19.67c-11.18,0-18.78,9.39-18.78,20.57v37.56h-18.04V95.92
				h16.25l1.19,9.99c7.45-7.3,14.91-11.03,24.15-11.03c17.29,0,31.15,12.97,31.15,36.07v38.6H1176.73z"/>
			<path class="st3" d="M1233.53,139.29c1.19,9.09,9.09,15.65,21.91,15.65c6.71,0,15.5-2.53,19.67-6.86l11.63,11.48
				c-7.75,8.05-20.42,11.92-31.6,11.92c-25.34,0-40.39-15.65-40.39-39.2c0-22.36,15.2-38.45,39.05-38.45
				c24.59,0,39.95,15.2,37.11,45.46H1233.53z M1273.47,124.24c-1.19-9.54-8.64-14.31-19.08-14.31c-9.84,0-17.88,4.77-20.57,14.31
				H1273.47z"/>
			<path class="st3" d="M1375.42,160.16c-8.5,8.35-17.44,11.63-28.32,11.63c-21.31,0-39.05-12.82-39.05-38.9
				c0-26.08,17.74-38.9,39.05-38.9c10.43,0,18.48,2.98,26.53,10.88l-11.48,12.07c-4.32-3.88-9.69-5.81-14.76-5.81
				c-12.22,0-21.17,8.94-21.17,21.76c0,14.01,9.54,21.46,20.87,21.46c5.81,0,11.63-1.64,16.1-6.11L1375.42,160.16z"/>
			<path class="st3" d="M1416.56,75.35v20.87h20.27v15.65h-20.42v31.75c0,7.01,3.88,10.43,9.54,10.43c2.83,0,6.11-0.89,8.79-2.24
				l5.07,15.5c-5.22,2.09-9.54,2.98-15.05,3.13c-15.95,0.6-26.38-8.5-26.38-26.83v-31.75h-13.71V96.22h13.71V77.29L1416.56,75.35z"
				/>
			<path class="st2" d="M1478.86,160.16c0,14.16-21.46,14.16-21.46,0S1478.86,146,1478.86,160.16z"/>
		</g>
		<g>
			<path class="st1" d="M487.56,201.72c-2.09-0.87-4.34-1.33-6.74-1.37c-2.9,0-5.41,0.59-7.52,1.77c-2.11,1.18-3.17,2.91-3.17,5.2
				c0,1.05,0.27,1.96,0.81,2.73s1.38,1.41,2.5,1.92c1.12,0.5,2.26,0.9,3.4,1.19c1.14,0.29,2.58,0.57,4.33,0.84
				c2.01,0.31,3.64,0.6,4.88,0.87c1.24,0.27,2.66,0.71,4.27,1.31s2.86,1.29,3.75,2.06s1.66,1.83,2.29,3.17
				c0.64,1.34,0.96,2.89,0.96,4.68c0,2.17-0.49,4.07-1.48,5.69c-0.99,1.63-2.3,2.89-3.95,3.78s-3.4,1.55-5.26,1.97
				c-1.86,0.43-3.81,0.64-5.87,0.64c-3.87,0-7.34-0.76-10.4-2.29c-3.06-1.53-5.33-3.9-6.8-7.12l4.18-2.44
				c1.24,2.29,3.07,4.05,5.49,5.29c2.42,1.24,4.95,1.86,7.58,1.86c1.36,0,2.66-0.12,3.92-0.35c1.26-0.23,2.48-0.62,3.66-1.16
				s2.13-1.33,2.85-2.35c0.72-1.03,1.07-2.26,1.07-3.69c0-1.2-0.3-2.25-0.9-3.14c-0.6-0.89-1.5-1.61-2.7-2.15
				c-1.2-0.54-2.41-0.97-3.63-1.28c-1.22-0.31-2.72-0.6-4.5-0.87c-1.86-0.27-3.42-0.55-4.68-0.84s-2.62-0.72-4.1-1.28
				s-2.65-1.22-3.54-1.97s-1.64-1.74-2.24-2.96c-0.6-1.22-0.9-2.62-0.9-4.21c-0.04-2.01,0.42-3.79,1.37-5.31
				c0.95-1.53,2.21-2.72,3.78-3.57s3.23-1.48,5-1.89c1.76-0.41,3.57-0.61,5.43-0.61c3.49,0,6.51,0.52,9.06,1.57
				c2.56,1.05,4.67,2.98,6.33,5.81l-3.83,2.38C491.22,203.87,489.65,202.59,487.56,201.72z"/>
			<path class="st1" d="M511.61,208.72h8.89v4.07h-8.95v15.16c0,3.68,1.51,5.52,4.53,5.52c1.28,0,2.61-0.35,4.01-1.05l1.39,3.95
				c-1.94,0.89-3.79,1.36-5.58,1.39c-6.04,0.12-9.06-3.16-9.06-9.82v-15.16h-5.75v-4.07h5.75v-7.9l4.76-0.52V208.72z"/>
			<path class="st1" d="M549.25,237.35l-0.23-4.59c-2.44,3.29-5.77,4.98-9.99,5.05c-3.72,0-6.73-1.19-9.03-3.57
				c-2.3-2.38-3.46-5.63-3.46-9.73v-15.86h4.76v15.8c0,2.79,0.77,4.98,2.32,6.56s3.68,2.38,6.39,2.38c2.59-0.04,4.71-0.95,6.36-2.73
				c1.65-1.78,2.47-3.99,2.47-6.62v-15.39h4.76v28.7h-4.42H549.25z"/>
			<path class="st1" d="M590.9,196.63v40.66h-4.47l-0.23-5.23c-1.12,1.9-2.64,3.34-4.56,4.33c-1.92,0.99-3.98,1.48-6.19,1.48
				c-4.22,0-7.7-1.33-10.43-3.98c-2.73-2.65-4.09-6.28-4.09-10.89c0-4.69,1.36-8.34,4.07-10.95c2.71-2.61,6.18-3.92,10.4-3.92
				c2.17,0,4.26,0.49,6.27,1.48s3.5,2.41,4.47,4.27v-17.19h4.71L590.9,196.63z M575.79,212.55c-2.9,0-5.32,0.92-7.23,2.76
				c-1.92,1.84-2.88,4.39-2.88,7.64c0,3.21,0.96,5.75,2.88,7.61c1.92,1.86,4.33,2.79,7.23,2.79s5.33-0.97,7.26-2.91
				c1.94-1.94,2.91-4.45,2.91-7.55c0-3.02-0.98-5.5-2.93-7.44c-1.96-1.94-4.39-2.9-7.29-2.9H575.79z"/>
			<path class="st1" d="M625.63,232.77c-1.39,1.67-3.21,2.93-5.46,3.8s-4.55,1.31-6.91,1.31c-4.49,0-8.13-1.37-10.92-4.09
				c-2.79-2.73-4.18-6.36-4.18-10.89c0-4.34,1.39-7.9,4.18-10.69c2.79-2.79,6.35-4.18,10.69-4.18c4.65,0,8.34,1.44,11.07,4.33
				c2.73,2.88,3.82,7.06,3.28,12.52h-24.4c0.27,2.59,1.37,4.68,3.31,6.24s4.3,2.35,7.09,2.35c1.7,0,3.42-0.32,5.14-0.96
				c1.72-0.64,3.05-1.52,3.98-2.64l3.2,2.9H625.63z M622.84,220.91c-0.12-2.75-1.05-4.87-2.79-6.36c-1.74-1.49-4.05-2.24-6.91-2.24
				c-2.59,0-4.84,0.76-6.74,2.27c-1.9,1.51-3.04,3.6-3.43,6.27h19.87V220.91z"/>
			<path class="st1" d="M634.34,208.6h4.36l0.23,4.59c2.44-3.33,5.71-5,9.82-5c3.72,0,6.75,1.19,9.09,3.57s3.51,5.63,3.51,9.73
				v15.86h-4.76v-15.8c0-2.79-0.77-4.98-2.32-6.56c-1.55-1.59-3.68-2.38-6.39-2.38c-2.59,0.04-4.71,0.95-6.36,2.73
				c-1.65,1.78-2.47,3.99-2.47,6.62v15.39h-4.71v-28.7V208.6z"/>
			<path class="st1" d="M677.33,208.72h8.89v4.07h-8.95v15.16c0,3.68,1.51,5.52,4.53,5.52c1.28,0,2.61-0.35,4.01-1.05l1.39,3.95
				c-1.94,0.89-3.79,1.36-5.58,1.39c-6.04,0.12-9.06-3.16-9.06-9.82v-15.16h-5.75v-4.07h5.75v-7.9l4.76-0.52V208.72z"/>
			<path class="st1" d="M713.11,218.42v4.53h-20.8v-4.53H713.11z"/>
			<path class="st1" d="M722.87,196.69h5.05v40.66h-5.05V196.69z"/>
			<path class="st1" d="M737.74,208.6h4.36l0.23,4.59c2.44-3.33,5.71-5,9.82-5c3.72,0,6.75,1.19,9.09,3.57s3.51,5.63,3.51,9.73
				v15.86h-4.76v-15.8c0-2.79-0.77-4.98-2.32-6.56c-1.55-1.59-3.68-2.38-6.39-2.38c-2.59,0.04-4.71,0.95-6.36,2.73
				c-1.65,1.78-2.47,3.99-2.47,6.62v15.39h-4.71v-28.7V208.6z"/>
			<path class="st1" d="M801.64,196.63v40.66h-4.47l-0.23-5.23c-1.12,1.9-2.64,3.34-4.56,4.33c-1.92,0.99-3.98,1.48-6.19,1.48
				c-4.22,0-7.7-1.33-10.43-3.98c-2.73-2.65-4.09-6.28-4.09-10.89c0-4.69,1.36-8.34,4.07-10.95c2.71-2.61,6.18-3.92,10.4-3.92
				c2.17,0,4.26,0.49,6.27,1.48s3.5,2.41,4.47,4.27v-17.19h4.71L801.64,196.63z M786.53,212.55c-2.9,0-5.32,0.92-7.23,2.76
				c-1.92,1.84-2.88,4.39-2.88,7.64c0,3.21,0.96,5.75,2.88,7.61c1.92,1.86,4.33,2.79,7.23,2.79s5.33-0.97,7.26-2.91
				c1.94-1.94,2.91-4.45,2.91-7.55c0-3.02-0.98-5.5-2.93-7.44c-1.96-1.94-4.39-2.9-7.29-2.9H786.53z"/>
			<path class="st1" d="M833,237.35l-0.23-4.59c-2.44,3.29-5.77,4.98-9.99,5.05c-3.72,0-6.73-1.19-9.03-3.57
				c-2.3-2.38-3.46-5.63-3.46-9.73v-15.86h4.76v15.8c0,2.79,0.77,4.98,2.32,6.56s3.68,2.38,6.39,2.38c2.59-0.04,4.71-0.95,6.36-2.73
				c1.65-1.78,2.47-3.99,2.47-6.62v-15.39h4.76v28.7h-4.42H833z"/>
			<path class="st1" d="M864.83,215.05c-2.05-1.86-4.74-2.79-8.07-2.79c-2.09-0.04-3.81,0.31-5.14,1.04
				c-1.34,0.74-1.98,1.78-1.95,3.14c0.04,2.28,2.42,3.7,7.15,4.24c1.36,0.16,2.47,0.31,3.34,0.46c0.87,0.15,1.93,0.44,3.17,0.84
				c1.24,0.41,2.22,0.9,2.93,1.48c0.72,0.58,1.35,1.38,1.89,2.41c0.54,1.03,0.79,2.22,0.76,3.57c-0.04,2.75-1.2,4.87-3.49,6.36
				c-2.29,1.49-5.13,2.24-8.54,2.24c-5.69,0-9.97-1.8-12.84-5.4l2.73-3.31c2.4,2.94,5.81,4.42,10.22,4.42c1.9,0,3.57-0.35,5.03-1.05
				s2.2-1.84,2.24-3.43c0.04-1.43-0.61-2.48-1.95-3.14c-1.34-0.66-3.26-1.14-5.78-1.45c-1.63-0.19-3.02-0.45-4.18-0.75
				c-1.16-0.31-2.34-0.75-3.54-1.34c-1.2-0.58-2.12-1.38-2.76-2.41c-0.64-1.03-0.96-2.27-0.96-3.75c0-1.94,0.6-3.56,1.8-4.88
				c1.2-1.32,2.64-2.25,4.33-2.79c1.68-0.54,3.51-0.79,5.49-0.75c4.45,0,8.09,1.28,10.92,3.83l-2.73,3.14L864.83,215.05z"/>
			<path class="st1" d="M883.83,208.72h8.89v4.07h-8.95v15.16c0,3.68,1.51,5.52,4.53,5.52c1.28,0,2.61-0.35,4.01-1.05l1.39,3.95
				c-1.94,0.89-3.79,1.36-5.58,1.39c-6.04,0.12-9.06-3.16-9.06-9.82v-15.16h-5.75v-4.07h5.75v-7.9l4.76-0.52V208.72z"/>
			<path class="st1" d="M903.63,208.6l0.35,4.3c1.7-3.18,4.65-4.76,8.83-4.76c2.52-0.08,4.74,0.64,6.68,2.15l-2.15,4.07
				c-1.51-1.05-3.18-1.57-5-1.57c-2.36,0.04-4.36,0.84-5.98,2.41c-1.63,1.57-2.44,3.63-2.44,6.19v15.97h-4.76v-28.7h4.42
				L903.63,208.6z"/>
			<path class="st1" d="M932.45,250.89h-5.11l5.98-13.94l-11.56-28.29h5.4l5.63,14.93l3.14,8.19l3.08-8.13l6.33-14.99h5.23
				L932.45,250.89z"/>
			<path class="st1" d="M976.53,232.65h22.13v4.71h-27.19v-40.66h5.05V232.65z"/>
			<path class="st1" d="M1005.29,197.13c1.04-0.52,2.09-0.51,3.14,0.03c1.04,0.54,1.57,1.47,1.57,2.79c0,1.32-0.52,2.24-1.57,2.76
				c-1.05,0.52-2.09,0.51-3.14-0.03c-1.05-0.54-1.57-1.47-1.57-2.79C1003.72,198.57,1004.24,197.65,1005.29,197.13z M1004.42,237.35
				h4.76v-28.81h-4.76V237.35z"/>
			<path class="st1" d="M1018.24,208.6h4.36l0.23,4.59c2.44-3.33,5.71-5,9.82-5c3.72,0,6.75,1.19,9.09,3.57s3.51,5.63,3.51,9.73
				v15.86h-4.76v-15.8c0-2.79-0.77-4.98-2.32-6.56c-1.55-1.59-3.68-2.38-6.39-2.38c-2.59,0.04-4.71,0.95-6.36,2.73
				c-1.65,1.78-2.47,3.99-2.47,6.62v15.39h-4.71v-28.7V208.6z"/>
			<path class="st1" d="M1058.61,220.74l11.79-12.08h5.92v0.29l-13.24,13.25l14.87,14.81v0.35h-5.81l-13.53-13.54v13.54h-4.71
				v-40.66h4.71V220.74z"/>
			<path class="st1" d="M1104.79,237.47l-0.12-5.23c-1.08,1.9-2.59,3.34-4.53,4.33s-3.95,1.48-6.04,1.48
				c-4.22,0-7.73-1.37-10.51-4.1s-4.18-6.38-4.18-10.95c0-4.53,1.4-8.14,4.21-10.83c2.81-2.69,6.32-4.02,10.54-3.98
				c2.21,0,4.28,0.49,6.22,1.48c1.94,0.99,3.41,2.39,4.42,4.21l0.06-5.23h4.65v28.7h-4.59L1104.79,237.47z M1094.33,212.72
				c-2.9,0-5.34,0.96-7.32,2.88c-1.98,1.92-2.96,4.44-2.96,7.58s0.99,5.67,2.96,7.61c1.97,1.94,4.42,2.9,7.32,2.9
				c1.9,0,3.59-0.39,5.08-1.16c1.49-0.77,2.62-1.78,3.4-3.02c0.77-1.24,1.34-2.6,1.68-4.1c0.35-1.49,0.35-2.98,0-4.47
				c-0.35-1.49-0.91-2.86-1.68-4.1c-0.78-1.24-1.9-2.25-3.37-3.02s-3.16-1.16-5.05-1.16L1094.33,212.72z"/>
			<path class="st1" d="M1124.68,248.04c1.96,1.32,4.37,1.99,7.23,2.03c2.79,0,5.17-0.55,7.14-1.66c1.98-1.1,2.96-2.82,2.96-5.14
				c0-2.21-0.96-3.91-2.88-5.11c-1.92-1.2-4.31-1.8-7.17-1.8c-4.57,0-8.24-1.26-11.01-3.78c-2.77-2.52-4.15-5.98-4.15-10.4
				c0-4.45,1.52-7.94,4.56-10.46s6.57-3.78,10.6-3.78c3.37,0,6.08,0.72,8.13,2.15l3.08-3.72l3.37,2.67l-3.25,3.83
				c2.48,2.79,3.72,5.89,3.72,9.29c0,2.63-0.69,5.02-2.06,7.17s-3.38,3.65-6.01,4.5c5.27,1.55,7.9,4.67,7.9,9.35
				c0,3.52-1.47,6.27-4.42,8.25c-2.94,1.97-6.47,2.96-10.57,2.96c-4.42,0-7.99-1.09-10.72-3.28c-2.73-2.19-4.06-5.18-3.98-8.98h4.59
				C1121.75,244.77,1122.73,246.73,1124.68,248.04z M1124.54,229.57c1.98,1.74,4.47,2.61,7.49,2.61s5.5-0.96,7.44-2.88
				s2.9-4.27,2.9-7.06c0-3.14-1.02-5.58-3.05-7.32c-2.03-1.74-4.48-2.61-7.35-2.61c-2.79,0-5.23,0.86-7.32,2.58
				c-2.09,1.72-3.14,4.15-3.14,7.29C1121.56,225.37,1122.56,227.83,1124.54,229.57z"/>
			<path class="st1" d="M1180.07,232.77c-1.39,1.67-3.21,2.93-5.46,3.8s-4.55,1.31-6.91,1.31c-4.49,0-8.13-1.37-10.92-4.09
				c-2.79-2.73-4.18-6.36-4.18-10.89c0-4.34,1.39-7.9,4.18-10.69c2.79-2.79,6.35-4.18,10.69-4.18c4.65,0,8.34,1.44,11.07,4.33
				c2.73,2.88,3.82,7.06,3.28,12.52h-24.4c0.27,2.59,1.37,4.68,3.31,6.24s4.3,2.35,7.09,2.35c1.7,0,3.42-0.32,5.14-0.96
				c1.72-0.64,3.05-1.52,3.98-2.64l3.2,2.9H1180.07z M1177.28,220.91c-0.12-2.75-1.05-4.87-2.79-6.36
				c-1.74-1.49-4.05-2.24-6.91-2.24c-2.59,0-4.84,0.76-6.74,2.27c-1.9,1.51-3.04,3.6-3.43,6.27h19.87V220.91z"/>
			<path class="st1" d="M1225.84,201.72c-2.09-0.87-4.34-1.33-6.74-1.37c-2.9,0-5.41,0.59-7.52,1.77c-2.11,1.18-3.17,2.91-3.17,5.2
				c0,1.05,0.27,1.96,0.81,2.73s1.38,1.41,2.5,1.92c1.12,0.5,2.26,0.9,3.4,1.19c1.14,0.29,2.58,0.57,4.33,0.84
				c2.01,0.31,3.64,0.6,4.88,0.87c1.24,0.27,2.66,0.71,4.27,1.31s2.86,1.29,3.75,2.06s1.66,1.83,2.29,3.17
				c0.64,1.34,0.96,2.89,0.96,4.68c0,2.17-0.49,4.07-1.48,5.69c-0.99,1.63-2.3,2.89-3.95,3.78s-3.4,1.55-5.26,1.97
				c-1.86,0.43-3.81,0.64-5.87,0.64c-3.87,0-7.34-0.76-10.4-2.29c-3.06-1.53-5.33-3.9-6.8-7.12l4.18-2.44
				c1.24,2.29,3.07,4.05,5.49,5.29c2.42,1.24,4.95,1.86,7.58,1.86c1.36,0,2.66-0.12,3.92-0.35c1.26-0.23,2.48-0.62,3.66-1.16
				s2.13-1.33,2.85-2.35c0.72-1.03,1.07-2.26,1.07-3.69c0-1.2-0.3-2.25-0.9-3.14c-0.6-0.89-1.5-1.61-2.7-2.15
				c-1.2-0.54-2.41-0.97-3.63-1.28c-1.22-0.31-2.72-0.6-4.5-0.87c-1.86-0.27-3.42-0.55-4.68-0.84s-2.62-0.72-4.1-1.28
				s-2.65-1.22-3.54-1.97s-1.64-1.74-2.24-2.96c-0.6-1.22-0.9-2.62-0.9-4.21c-0.04-2.01,0.42-3.79,1.37-5.31
				c0.95-1.53,2.21-2.72,3.78-3.57s3.23-1.48,5-1.89c1.76-0.41,3.57-0.61,5.43-0.61c3.49,0,6.51,0.52,9.06,1.57
				c2.56,1.05,4.67,2.98,6.33,5.81l-3.83,2.38C1229.5,203.87,1227.93,202.59,1225.84,201.72z"/>
			<path class="st1" d="M1245.27,212.23c2.81-2.81,6.36-4.21,10.66-4.21c4.38,0,7.96,1.39,10.75,4.18
				c2.79,2.79,4.18,6.41,4.18,10.86c0,4.34-1.4,7.89-4.21,10.66c-2.81,2.77-6.38,4.15-10.72,4.15c-4.3,0-7.85-1.38-10.66-4.15
				c-2.81-2.77-4.21-6.32-4.21-10.66C1241.06,218.65,1242.46,215.04,1245.27,212.23z M1263.25,215.37
				c-1.94-1.99-4.36-2.99-7.26-2.99c-2.94,0-5.37,0.99-7.29,2.96c-1.92,1.98-2.88,4.55-2.88,7.73c0,3.02,0.95,5.5,2.85,7.44
				s4.32,2.9,7.26,2.9s5.37-0.97,7.29-2.9s2.89-4.42,2.93-7.44C1266.15,219.93,1265.19,217.36,1263.25,215.37z"/>
			<path class="st1" d="M1283.17,237.35h-4.76v-40.66h4.76V237.35z"/>
			<path class="st1" d="M1314.89,237.35l-0.23-4.59c-2.44,3.29-5.77,4.98-9.99,5.05c-3.72,0-6.73-1.19-9.03-3.57
				c-2.3-2.38-3.46-5.63-3.46-9.73v-15.86h4.76v15.8c0,2.79,0.77,4.98,2.32,6.56s3.68,2.38,6.39,2.38c2.59-0.04,4.71-0.95,6.36-2.73
				c1.65-1.78,2.47-3.99,2.47-6.62v-15.39h4.76v28.7h-4.42H1314.89z"/>
			<path class="st1" d="M1336.38,208.72h8.89v4.07h-8.95v15.16c0,3.68,1.51,5.52,4.53,5.52c1.28,0,2.61-0.35,4.01-1.05l1.39,3.95
				c-1.94,0.89-3.79,1.36-5.58,1.39c-6.04,0.12-9.06-3.16-9.06-9.82v-15.16h-5.75v-4.07h5.75v-7.9l4.76-0.52V208.72z"/>
			<path class="st1" d="M1352.59,197.13c1.04-0.52,2.09-0.51,3.14,0.03c1.04,0.54,1.57,1.47,1.57,2.79c0,1.32-0.52,2.24-1.57,2.76
				c-1.05,0.52-2.09,0.51-3.14-0.03c-1.05-0.54-1.57-1.47-1.57-2.79C1351.02,198.57,1351.54,197.65,1352.59,197.13z M1351.71,237.35
				h4.76v-28.81h-4.76V237.35z"/>
			<path class="st1" d="M1367.89,212.23c2.81-2.81,6.36-4.21,10.66-4.21c4.38,0,7.96,1.39,10.75,4.18
				c2.79,2.79,4.18,6.41,4.18,10.86c0,4.34-1.4,7.89-4.21,10.66c-2.81,2.77-6.38,4.15-10.72,4.15c-4.3,0-7.85-1.38-10.66-4.15
				c-2.81-2.77-4.21-6.32-4.21-10.66C1363.68,218.65,1365.08,215.04,1367.89,212.23z M1385.87,215.37
				c-1.94-1.99-4.36-2.99-7.26-2.99c-2.94,0-5.37,0.99-7.29,2.96c-1.92,1.98-2.88,4.55-2.88,7.73c0,3.02,0.95,5.5,2.85,7.44
				s4.32,2.9,7.26,2.9s5.37-0.97,7.29-2.9s2.89-4.42,2.93-7.44C1388.77,219.93,1387.81,217.36,1385.87,215.37z"/>
			<path class="st1" d="M1400.68,208.6h4.36l0.23,4.59c2.44-3.33,5.71-5,9.82-5c3.72,0,6.75,1.19,9.09,3.57s3.51,5.63,3.51,9.73
				v15.86h-4.76v-15.8c0-2.79-0.77-4.98-2.32-6.56c-1.55-1.59-3.68-2.38-6.39-2.38c-2.59,0.04-4.71,0.95-6.36,2.73
				c-1.65,1.78-2.47,3.99-2.47,6.62v15.39h-4.71v-28.7V208.6z"/>
		</g>
	</g>
	<g>
	</g>
	<g>
	</g>
	<g>
	</g>
	<g>
	</g>
	<g>
	</g>
	<g>
	</g>
</g>
</svg>
